<svg width="24" height="24" viewBox="0 0 24 24" fill="none" xmlns="http://www.w3.org/2000/svg">
<rect width="24" height="24" rx="12" fill="black" fill-opacity="0.05"/>
<path d="M16.8703 15.9375C16.1706 14.7321 15.0506 13.8274 13.725 13.3968C14.3604 13.019 14.8542 12.443 15.1304 11.7574C15.4067 11.0717 15.4502 10.3143 15.2543 9.60148C15.0584 8.88869 14.6339 8.25993 14.046 7.8118C13.458 7.36368 12.7392 7.12097 12 7.12097C11.2608 7.12097 10.542 7.36368 9.95408 7.8118C9.36616 8.25993 8.94163 8.88869 8.74571 9.60148C8.54979 10.3143 8.59331 11.0717 8.86959 11.7574C9.14587 12.443 9.63963 13.019 10.275 13.3968C8.94943 13.8274 7.82942 14.7321 7.1297 15.9375C7.09535 15.994 7.07718 16.0588 7.07718 16.125C7.07718 16.1911 7.09535 16.256 7.1297 16.3125C7.16175 16.3699 7.20872 16.4177 7.26564 16.4507C7.32257 16.4837 7.38734 16.5007 7.45314 16.5H16.5469C16.6127 16.5007 16.6775 16.4837 16.7344 16.4507C16.7913 16.4177 16.8383 16.3699 16.8703 16.3125C16.9047 16.256 16.9229 16.1911 16.9229 16.125C16.9229 16.0588 16.9047 15.994 16.8703 15.9375Z" fill="#1C1C1C"/>
</svg>
