<svg width="28" height="28" viewBox="0 0 28 28" fill="none" xmlns="http://www.w3.org/2000/svg">
<path fill-rule="evenodd" clip-rule="evenodd" d="M5.875 8.375C5.875 8.375 5.875 7.85723 6.24112 7.49112C6.24112 7.49112 6.60723 7.125 7.125 7.125H20.875C20.875 7.125 21.3928 7.125 21.7589 7.49112C21.7589 7.49112 22.125 7.85723 22.125 8.375V19.625C22.125 19.625 22.125 20.1428 21.7589 20.5089C21.7589 20.5089 21.3928 20.875 20.875 20.875H7.125C7.125 20.875 6.60723 20.875 6.24112 20.5089C6.24112 20.5089 5.875 20.1428 5.875 19.625V8.375ZM7.125 8.375V19.625H20.875V8.375H7.125Z" fill="#1C1C1C"/>
<path d="M17.7534 15.5122L21.0581 18.8169C21.1753 18.9341 21.3342 18.9999 21.5 18.9999C21.6658 18.9999 21.8247 18.9341 21.9419 18.8169C22.0592 18.6997 22.125 18.5407 22.125 18.3749C22.125 18.2092 22.0592 18.0502 21.9419 17.933L18.6373 14.6283C18.4644 14.4528 18.2328 14.3558 18.2328 14.3558C18.0011 14.2588 17.75 14.2588 17.75 14.2588C17.4989 14.2588 17.2672 14.3558 17.2672 14.3558C17.0356 14.4528 16.8594 14.6317 16.8594 14.6317L15.2534 16.2377L15.25 16.2411L11.7623 12.7533C11.5894 12.5778 11.3578 12.4808 11.3578 12.4808C11.1261 12.3838 10.875 12.3838 10.875 12.3838C10.6239 12.3838 10.3922 12.4808 10.3922 12.4808C10.1606 12.5778 9.98438 12.7567 9.98438 12.7567L6.05829 16.6828C5.94108 16.8 5.875 16.9592 5.875 17.1249C5.875 17.1349 5.87524 17.145 5.87572 17.155C5.88319 17.3102 5.94819 17.457 6.05806 17.5669C6.17527 17.6841 6.33424 17.7499 6.5 17.7499C6.66576 17.7499 6.82473 17.6841 6.94194 17.5669L10.875 13.6338L10.8784 13.6372L14.3594 17.1182C14.5356 17.2971 14.7672 17.3941 14.7672 17.3941C14.9989 17.4911 15.25 17.4911 15.25 17.4911C15.5011 17.4911 15.7328 17.3941 15.7328 17.3941C15.9644 17.2971 16.1373 17.1216 16.1373 17.1216L17.75 15.5088L17.7534 15.5122Z" fill="#1C1C1C"/>
<path d="M17.125 11.8125C17.125 12.3303 16.7052 12.75 16.1875 12.75C15.6698 12.75 15.25 12.3303 15.25 11.8125C15.25 11.2947 15.6698 10.875 16.1875 10.875C16.7052 10.875 17.125 11.2947 17.125 11.8125Z" fill="#1C1C1C"/>
</svg>
