<svg width="16" height="16" viewBox="0 0 16 16" fill="none" xmlns="http://www.w3.org/2000/svg">
<path d="M14.35 14.3562C14.2567 14.4481 14.131 14.4998 14 14.5C13.8672 14.4994 13.7397 14.448 13.6438 14.3562L10.9438 11.65C9.80662 12.6051 8.34465 13.0844 6.86276 12.9878C5.38086 12.8912 3.99346 12.2263 2.98991 11.1316C1.98636 10.037 1.44415 8.59717 1.47636 7.11248C1.50858 5.62779 2.11272 4.21286 3.1628 3.16277C4.21289 2.11269 5.62782 1.50855 7.11251 1.47633C8.5972 1.44412 10.037 1.98633 11.1316 2.98988C12.2263 3.99343 12.8912 5.38083 12.9878 6.86273C13.0844 8.34462 12.6051 9.80659 11.65 10.9437L14.35 13.6437C14.3972 13.6903 14.4348 13.7457 14.4604 13.8069C14.486 13.868 14.4992 13.9337 14.4992 14C14.4992 14.0663 14.486 14.1319 14.4604 14.1931C14.4348 14.2542 14.3972 14.3097 14.35 14.3562ZM7.25001 12C8.18947 12 9.10783 11.7214 9.88896 11.1995C10.6701 10.6775 11.2789 9.93567 11.6384 9.06772C11.9979 8.19977 12.092 7.24471 11.9087 6.3233C11.7255 5.40189 11.2731 4.55552 10.6088 3.89122C9.94446 3.22692 9.09809 2.77452 8.17668 2.59124C7.25527 2.40797 6.30021 2.50203 5.43226 2.86155C4.56431 3.22106 3.82246 3.82988 3.30052 4.61102C2.77859 5.39215 2.50001 6.31051 2.50001 7.24998C2.50166 8.50925 3.00264 9.71647 3.89307 10.6069C4.78351 11.4973 5.99073 11.9983 7.25001 12Z" fill="black" fill-opacity="0.2"/>
</svg>
