<svg width="28" height="28" viewBox="0 0 28 28" fill="none" xmlns="http://www.w3.org/2000/svg">
<path fill-rule="evenodd" clip-rule="evenodd" d="M21.4539 12.9078C21.4539 12.9078 21.7503 13.0727 21.9227 13.3651C21.9227 13.3651 22.0959 13.6589 22.0959 13.9999C22.0959 13.9999 22.0959 14.341 21.9227 14.6348C21.9227 14.6348 21.7495 14.9286 21.451 15.0937L8.25857 22.4827C8.25857 22.4827 7.91401 22.6731 7.52596 22.6341C7.52596 22.6341 7.13791 22.5951 6.84088 22.3424C6.84088 22.3424 6.54385 22.0896 6.44324 21.7128C6.44324 21.7128 6.34263 21.336 6.47413 20.9689L8.95858 13.9999L6.47382 7.03012C6.47382 7.03012 6.34263 6.66383 6.44324 6.28703C6.44324 6.28703 6.54385 5.91022 6.84088 5.65749C6.84088 5.65749 7.13791 5.40475 7.52596 5.36576C7.52596 5.36576 7.91401 5.32677 8.25538 5.51536L21.451 12.9062L21.4539 12.9078ZM7.65093 6.6095L20.8431 13.9984L20.8459 13.9999L7.65093 21.3904L10.1319 14.4312C10.1319 14.4312 10.3009 13.9999 10.1319 13.5686L7.65093 6.6095Z" fill="black" fill-opacity="0.2"/>
<path d="M9.62503 14.625H14.625C14.9702 14.625 15.25 14.3451 15.25 14C15.25 13.6548 14.9702 13.375 14.625 13.375H9.62503C9.27985 13.375 9.00003 13.6548 9.00003 14C9.00003 14.3451 9.27985 14.625 9.62503 14.625Z" fill="black" fill-opacity="0.2"/>
</svg>
