<svg width="28" height="28" viewBox="0 0 28 28" fill="none" xmlns="http://www.w3.org/2000/svg">
<path fill-rule="evenodd" clip-rule="evenodd" d="M10.25 9C10.25 9 10.25 7.4467 11.3483 6.34835C11.3483 6.34835 12.4467 5.25 14 5.25C14 5.25 15.5533 5.25 16.6516 6.34835C16.6516 6.34835 17.75 7.4467 17.75 9V14C17.75 14 17.75 15.5533 16.6516 16.6517C16.6516 16.6517 15.5533 17.75 14 17.75C14 17.75 12.4467 17.75 11.3483 16.6517C11.3483 16.6517 10.25 15.5533 10.25 14V9ZM11.5 9L11.5 14C11.5 14 11.5 15.0355 12.2322 15.7678C12.2322 15.7678 12.9645 16.5 14 16.5C14 16.5 15.0355 16.5 15.7678 15.7678C15.7678 15.7678 16.5 15.0355 16.5 14V9C16.5 9 16.5 7.96447 15.7678 7.23223C15.7678 7.23223 15.0355 6.5 14 6.5C14 6.5 12.9645 6.5 12.2322 7.23223C12.2322 7.23223 11.5 7.96447 11.5 9Z" fill="#1C1C1C"/>
<path d="M13.375 19.625V22.125C13.375 22.4702 13.6548 22.75 14 22.75C14.3452 22.75 14.625 22.4702 14.625 22.125V19.625C14.625 19.2798 14.3452 19 14 19C13.6548 19 13.375 19.2798 13.375 19.625Z" fill="#1C1C1C"/>
<path d="M10.6736 17.7062C9.25069 16.4418 9.02691 14.5515 9.02691 14.5515C8.98967 14.237 8.723 14 8.40624 14L8.40319 14C8.37965 14.0001 8.35614 14.0016 8.33276 14.0043C8.01821 14.0416 7.78124 14.3082 7.78124 14.625L7.78125 14.6281C7.78136 14.6516 7.78281 14.6751 7.78558 14.6985C8.0653 17.0604 9.84329 18.6406 9.84329 18.6406C11.6214 20.2206 14 20.2206 14 20.2206C16.3786 20.2206 18.1567 18.6406 18.1567 18.6406C19.9346 17.0608 20.2143 14.699 20.2143 14.699C20.2172 14.6746 20.2187 14.6496 20.2187 14.625C20.2187 14.6114 20.2183 14.5979 20.2174 14.5843C20.1978 14.2836 19.9664 14.0398 19.6672 14.0043C19.6428 14.0014 19.6183 14 19.5937 14L19.5766 14.0002C19.4421 14.0039 19.3124 14.0509 19.2068 14.1342C19.0766 14.2368 18.9926 14.3869 18.9731 14.5515C18.7493 16.4418 17.3264 17.7062 17.3264 17.7062C15.9035 18.9706 14 18.9706 14 18.9706C12.0965 18.9706 10.6736 17.7062 10.6736 17.7062Z" fill="#1C1C1C"/>
</svg>
