<svg width="20" height="20" viewBox="0 0 20 20" fill="none" xmlns="http://www.w3.org/2000/svg">
<path fill-rule="evenodd" clip-rule="evenodd" d="M10 1.875C10 1.875 11.6526 1.875 13.1628 2.51376C13.1628 2.51376 14.621 3.13053 15.7452 4.25476C15.7452 4.25476 16.8695 5.37899 17.4862 6.83719C17.4862 6.83719 18.125 8.34739 18.125 10C18.125 10 18.125 11.6526 17.4862 13.1628C17.4862 13.1628 16.8695 14.621 15.7452 15.7452C15.7452 15.7452 14.621 16.8695 13.1628 17.4862C13.1628 17.4862 11.6526 18.125 10 18.125C10 18.125 8.34739 18.125 6.83719 17.4862C6.83719 17.4862 5.37899 16.8695 4.25476 15.7452C4.25476 15.7452 3.13053 14.621 2.51376 13.1628C2.51376 13.1628 1.875 11.6526 1.875 10C1.875 10 1.875 8.34739 2.51376 6.83719C2.51376 6.83719 3.13053 5.37899 4.25476 4.25476C4.25476 4.25476 5.37899 3.13053 6.83719 2.51376C6.83719 2.51376 8.34739 1.875 10 1.875ZM10 3.125C10 3.125 8.60087 3.125 7.32413 3.66501C7.32413 3.66501 6.09047 4.18681 5.13864 5.13864C5.13864 5.13864 4.18681 6.09047 3.66502 7.32413C3.66502 7.32413 3.125 8.60087 3.125 10C3.125 10 3.125 11.3991 3.66502 12.6759C3.66502 12.6759 4.18681 13.9095 5.13864 14.8614C5.13864 14.8614 6.09047 15.8132 7.32413 16.335C7.32413 16.335 8.60087 16.875 10 16.875C10 16.875 11.3991 16.875 12.6759 16.335C12.6759 16.335 13.9095 15.8132 14.8614 14.8614C14.8614 14.8614 15.8132 13.9095 16.335 12.6759C16.335 12.6759 16.875 11.3991 16.875 10C16.875 10 16.875 8.60088 16.335 7.32413C16.335 7.32413 15.8132 6.09047 14.8614 5.13864C14.8614 5.13864 13.9095 4.18681 12.6759 3.66501C12.6759 3.66501 11.3991 3.125 10 3.125Z" fill="#1C1C1C"/>
<path d="M8.125 8.4375C8.125 8.95523 7.70523 9.375 7.1875 9.375C6.66977 9.375 6.25 8.95523 6.25 8.4375C6.25 7.91977 6.66977 7.5 7.1875 7.5C7.70523 7.5 8.125 7.91977 8.125 8.4375Z" fill="#1C1C1C"/>
<path d="M13.75 8.4375C13.75 8.95523 13.3302 9.375 12.8125 9.375C12.2948 9.375 11.875 8.95523 11.875 8.4375C11.875 7.91977 12.2948 7.5 12.8125 7.5C13.3302 7.5 13.75 7.91977 13.75 8.4375Z" fill="#1C1C1C"/>
<path d="M7.29064 11.5614C7.17881 11.3688 6.97277 11.25 6.74999 11.25C6.73984 11.25 6.7297 11.2502 6.71956 11.2507C6.61979 11.2556 6.52263 11.2843 6.43624 11.3345C6.24357 11.4463 6.12499 11.6522 6.12499 11.875C6.12499 11.8851 6.12524 11.8953 6.12573 11.9054C6.1306 12.0052 6.15931 12.1024 6.20945 12.1888C6.79763 13.2021 7.81298 13.7867 7.81298 13.7867C8.82834 14.3714 9.99999 14.3714 9.99999 14.3714C11.1716 14.3714 12.187 13.7867 12.187 13.7867C13.2024 13.2021 13.7905 12.1888 13.7905 12.1888C13.8459 12.0934 13.875 11.9852 13.875 11.875C13.875 11.8639 13.8747 11.8529 13.8741 11.8418C13.8629 11.6312 13.7462 11.4404 13.5637 11.3345C13.4684 11.2791 13.3602 11.25 13.25 11.25L13.2402 11.2501C13.1893 11.2509 13.1388 11.2579 13.0896 11.2709C12.9294 11.3135 12.7927 11.4179 12.7095 11.5612L12.7091 11.5619C12.2887 12.2857 11.5633 12.7035 11.5633 12.7035C10.8375 13.1214 9.99999 13.1214 9.99999 13.1214C9.1625 13.1214 8.43673 12.7035 8.43673 12.7035C7.71105 12.2856 7.29064 11.5614 7.29064 11.5614Z" fill="#1C1C1C"/>
</svg>
